{
  "accessors": [
    {
      "bufferView": 2,
      "componentType": 5126,
      "count": 65534,
      "max": [
        71.64498138427734,
        272.38104248046875,
        348.8397216796875
      ],
      "min": [
        -150.93276977539063,
        75.93975067138672,
        148.88803100585938
      ],
      "type": "VEC3"
    },
    {
      "bufferView": 2,
      "byteOffset": 786408,
      "componentType": 5126,
      "count": 65534,
      "max": [
        0.9998736381530762,
        0.9999814033508301,
        0.9999045133590698
      ],
      "min": [
        -0.9996960759162903,
        -0.9998109936714172,
        -0.999908447265625
      ],
      "type": "VEC3"
    },
    {
      "bufferView": 1,
      "componentType": 5126,
      "count": 65534,
      "max": [
        0.994018018245697,
        0.8242189884185791
      ],
      "min": [
        0.0007810000097379088,
        0.0007900000200606883
      ],
      "type": "VEC2"
    },
    {
      "bufferView": 0,
      "componentType": 5125,
      "count": 65541,
      "type": "SCALAR"
    },
    {
      "bufferView": 2,
      "byteOffset": 1572816,
      "componentType": 5126,
      "count": 65533,
      "max": [
        126.37311553955078,
        270.5045166015625,
        383.4083251953125
      ],
      "min": [
        -133.4345703125,
        -179.4254150390625,
        3.070128917694092
      ],
      "type": "VEC3"
    },
    {
      "bufferView": 2,
      "byteOffset": 2359212,
      "componentType": 5126,
      "count": 65533,
      "max": [
        0.9998136162757874,
        0.9999425411224365,
        0.999485433101654
      ],
      "min": [
        -0.9999428987503052,
        -0.9998815059661865,
        -0.9999585151672363
      ],
      "type": "VEC3"
    },
    {
      "bufferView": 1,
      "byteOffset": 524272,
      "componentType": 5126,
      "count": 65533,
      "max": [
        0.9941679835319519,
        0.6984379887580872
      ],
      "min": [
        0.06093800067901611,
        0.0008699999889358878
      ],
      "type": "VEC2"
    },
    {
      "bufferView": 0,
      "byteOffset": 262164,
      "componentType": 5125,
      "count": 65544,
      "type": "SCALAR"
    },
    {
      "bufferView": 2,
      "byteOffset": 3145608,
      "componentType": 5126,
      "count": 65534,
      "max": [
        126.37311553955078,
        272.47998046875,
        328.8766784667969
      ],
      "min": [
        -144.1280517578125,
        -198.408935546875,
        0.2070309966802597
      ],
      "type": "VEC3"
    },
    {
      "bufferView": 2,
      "byteOffset": 3932016,
      "componentType": 5126,
      "count": 65534,
      "max": [
        0.9994335174560547,
        0.9999854564666748,
        0.9999960660934448
      ],
      "min": [
        -0.999873161315918,
        -0.9986407160758972,
        -0.99991774559021
      ],
      "type": "VEC3"
    },
    {
      "bufferView": 1,
      "byteOffset": 1048536,
      "componentType": 5126,
      "count": 65534,
      "max": [
        0.998091995716095,
        0.9148439764976501
      ],
      "min": [
        0.21328100562095642,
        0.0008580000139772892
      ],
      "type": "VEC2"
    },
    {
      "bufferView": 0,
      "byteOffset": 524340,
      "componentType": 5125,
      "count": 65547,
      "type": "SCALAR"
    },
    {
      "bufferView": 2,
      "byteOffset": 4718424,
      "componentType": 5126,
      "count": 65532,
      "max": [
        126.08802032470703,
        261.7467346191406,
        438.0007019042969
      ],
      "min": [
        -166.8017578125,
        -293.171142578125,
        0.8358460068702698
      ],
      "type": "VEC3"
    },
    {
      "bufferView": 2,
      "byteOffset": 5504808,
      "componentType": 5126,
      "count": 65532,
      "max": [
        0.9997352957725525,
        0.9999803304672241,
        0.9999481439590454
      ],
      "min": [
        -0.9999594688415527,
        -0.9990900158882141,
        -0.9985041618347168
      ],
      "type": "VEC3"
    },
    {
      "bufferView": 1,
      "byteOffset": 1572808,
      "componentType": 5126,
      "count": 65532,
      "max": [
        0.8546010255813599,
        0.854686975479126
      ],
      "min": [
        0.24296900629997253,
        0.043866999447345734
      ],
      "type": "VEC2"
    },
    {
      "bufferView": 0,
      "byteOffset": 786528,
      "componentType": 5125,
      "count": 65556,
      "type": "SCALAR"
    },
    {
      "bufferView": 2,
      "byteOffset": 6291192,
      "componentType": 5126,
      "count": 65533,
      "max": [
        123.87808990478516,
        259.11572265625,
        781.91015625
      ],
      "min": [
        -141.3468017578125,
        -307.06201171875,
        123.17384338378906
      ],
      "type": "VEC3"
    },
    {
      "bufferView": 2,
      "byteOffset": 7077588,
      "componentType": 5126,
      "count": 65533,
      "max": [
        0.9999465942382813,
        0.9995582699775696,
        0.9995943903923035
      ],
      "min": [
        -0.9981980919837952,
        -0.9968553185462952,
        -0.9999232292175293
      ],
      "type": "VEC3"
    },
    {
      "bufferView": 1,
      "byteOffset": 2097064,
      "componentType": 5126,
      "count": 65533,
      "max": [
        0.8031349778175354,
        0.9992190003395081
      ],
      "min": [
        0.012500000186264515,
        0.3318449854850769
      ],
      "type": "VEC2"
    },
    {
      "bufferView": 0,
      "byteOffset": 1048752,
      "componentType": 5125,
      "count": 65559,
      "type": "SCALAR"
    },
    {
      "bufferView": 2,
      "byteOffset": 7863984,
      "componentType": 5126,
      "count": 65532,
      "max": [
        123.7430191040039,
        258.834716796875,
        908.3790283203125
      ],
      "min": [
        -183.30166625976563,
        -311.4949035644531,
        134.52928161621094
      ],
      "type": "VEC3"
    },
    {
      "bufferView": 2,
      "byteOffset": 8650368,
      "componentType": 5126,
      "count": 65532,
      "max": [
        0.9999854564666748,
        0.9992283582687378,
        0.9967380166053772
      ],
      "min": [
        -0.9878216981887817,
        -0.9999445676803589,
        -0.9999940395355225
      ],
      "type": "VEC3"
    },
    {
      "bufferView": 1,
      "byteOffset": 2621328,
      "componentType": 5126,
      "count": 65532,
      "max": [
        0.81181401014328,
        0.9969859719276428
      ],
      "min": [
        0.0007810000097379088,
        0.4643310010433197
      ],
      "type": "VEC2"
    },
    {
      "bufferView": 0,
      "byteOffset": 1310988,
      "componentType": 5125,
      "count": 65544,
      "type": "SCALAR"
    },
    {
      "bufferView": 2,
      "byteOffset": 9436752,
      "componentType": 5126,
      "count": 65532,
      "max": [
        123.64891815185547,
        259.11572265625,
        901.50927734375
      ],
      "min": [
        -166.74139404296875,
        -302.9428405761719,
        12.997283935546875
      ],
      "type": "VEC3"
    },
    {
      "bufferView": 2,
      "byteOffset": 10223136,
      "componentType": 5126,
      "count": 65532,
      "max": [
        0.9999245405197144,
        0.9999867677688599,
        0.9965413808822632
      ],
      "min": [
        -0.9999942779541016,
        -0.9997754693031311,
        -0.9975838661193848
      ],
      "type": "VEC3"
    },
    {
      "bufferView": 1,
      "byteOffset": 3145584,
      "componentType": 5126,
      "count": 65532,
      "max": [
        0.98745197057724,
        0.9835940003395081
      ],
      "min": [
        0.04313400015234947,
        0.14176499843597412
      ],
      "type": "VEC2"
    },
    {
      "bufferView": 0,
      "byteOffset": 1573164,
      "componentType": 5125,
      "count": 65556,
      "type": "SCALAR"
    },
    {
      "bufferView": 2,
      "byteOffset": 11009520,
      "componentType": 5126,
      "count": 65534,
      "max": [
        123.87808990478516,
        189.32003784179688,
        915.28271484375
      ],
      "min": [
        -186.09768676757813,
        -305.34490966796875,
        -1.4201970100402832
      ],
      "type": "VEC3"
    },
    {
      "bufferView": 2,
      "byteOffset": 11795928,
      "componentType": 5126,
      "count": 65534,
      "max": [
        0.9999747276306152,
        0.9998786449432373,
        0.9999977350234985
      ],
      "min": [
        -0.9997747540473938,
        -0.9994276762008667,
        -0.9977079629898071
      ],
      "type": "VEC3"
    },
    {
      "bufferView": 1,
      "byteOffset": 3669840,
      "componentType": 5126,
      "count": 65534,
      "max": [
        0.9731370210647583,
        0.9523440003395081
      ],
      "min": [
        0.017294999212026596,
        0.1833149939775467
      ],
      "type": "VEC2"
    },
    {
      "bufferView": 0,
      "byteOffset": 1835388,
      "componentType": 5125,
      "count": 65562,
      "type": "SCALAR"
    },
    {
      "bufferView": 2,
      "byteOffset": 12582336,
      "componentType": 5126,
      "count": 65532,
      "max": [
        85.03154754638672,
        245.11155700683594,
        439.12091064453125
      ],
      "min": [
        -150.73228454589844,
        -178.4591827392578,
        -2.900757074356079
      ],
      "type": "VEC3"
    },
    {
      "bufferView": 2,
      "byteOffset": 13368720,
      "componentType": 5126,
      "count": 65532,
      "max": [
        0.9997242093086243,
        0.9997574687004089,
        0.9999703168869019
      ],
      "min": [
        -0.999990701675415,
        -0.9999465942382813,
        -0.9999994039535522
      ],
      "type": "VEC3"
    },
    {
      "bufferView": 1,
      "byteOffset": 4194112,
      "componentType": 5126,
      "count": 65532,
      "max": [
        0.732912003993988,
        0.668749988079071
      ],
      "min": [
        0.017187999561429024,
        0.016137000173330307
      ],
      "type": "VEC2"
    },
    {
      "bufferView": 0,
      "byteOffset": 2097636,
      "componentType": 5125,
      "count": 65556,
      "type": "SCALAR"
    },
    {
      "bufferView": 2,
      "byteOffset": 14155104,
      "componentType": 5126,
      "count": 10033,
      "max": [
        108.74748992919922,
        199.6830291748047,
        396.6678771972656
      ],
      "min": [
        19.97671890258789,
        -76.28723907470703,
        43.02325439453125
      ],
      "type": "VEC3"
    },
    {
      "bufferView": 2,
      "byteOffset": 14275500,
      "componentType": 5126,
      "count": 10033,
      "max": [
        0.9999722242355347,
        0.9995540976524353,
        0.9759426712989807
      ],
      "min": [
        -0.8667808771133423,
        -0.9975212812423706,
        -0.9967288374900818
      ],
      "type": "VEC3"
    },
    {
      "bufferView": 1,
      "byteOffset": 4718368,
      "componentType": 5126,
      "count": 10033,
      "max": [
        0.8663910031318665,
        0.519228994846344
      ],
      "min": [
        0.22753700613975525,
        0.30307498574256897
      ],
      "type": "VEC2"
    },
    {
      "bufferView": 0,
      "byteOffset": 2359860,
      "componentType": 5125,
      "count": 10035,
      "type": "SCALAR"
    }
  ],
  "asset": {
    "extras": {
      "author": "Natural History Museum Vienna (https://sketchfab.com/NHMWien)",
      "license": "CC-BY-NC-4.0 (http://creativecommons.org/licenses/by-nc/4.0/)",
      "source": "https://sketchfab.com/3d-models/black-swan-nhmw-zoo1-vs-63420-c6259ae5a9d34d99b9fa337d90694fab",
      "title": "Black Swan (NHMW-Zoo1-VS 63420)"
    },
    "generator": "Sketchfab-13.62.0",
    "version": "2.0"
  },
  "bufferViews": [
    {
      "buffer": 0,
      "byteLength": 2400000,
      "name": "floatBufferViews",
      "target": 34963
    },
    {
      "buffer": 0,
      "byteLength": 4798632,
      "byteOffset": 2400000,
      "byteStride": 8,
      "name": "floatBufferViews",
      "target": 34962
    },
    {
      "buffer": 0,
      "byteLength": 14395896,
      "byteOffset": 7198632,
      "byteStride": 12,
      "name": "floatBufferViews",
      "target": 34962
    }
  ],
  "buffers": [
    {
      "byteLength": 21594528,
      "uri": "scene.bin"
    }
  ],
  "images": [
    {
      "uri": "textures/material_0_baseColor.png"
    }
  ],
  "materials": [
    {
      "doubleSided": true,
      "name": "material_0",
      "pbrMetallicRoughness": {
        "baseColorTexture": {
          "index": 0
        },
        "metallicFactor": 0.0,
        "roughnessFactor": 0.8033679101649569
      }
    }
  ],
  "meshes": [
    {
      "name": "Object_0",
      "primitives": [
        {
          "attributes": {
            "NORMAL": 1,
            "POSITION": 0,
            "TEXCOORD_0": 2
          },
          "indices": 3,
          "material": 0,
          "mode": 4
        }
      ]
    },
    {
      "name": "Object_1",
      "primitives": [
        {
          "attributes": {
            "NORMAL": 5,
            "POSITION": 4,
            "TEXCOORD_0": 6
          },
          "indices": 7,
          "material": 0,
          "mode": 4
        }
      ]
    },
    {
      "name": "Object_2",
      "primitives": [
        {
          "attributes": {
            "NORMAL": 9,
            "POSITION": 8,
            "TEXCOORD_0": 10
          },
          "indices": 11,
          "material": 0,
          "mode": 4
        }
      ]
    },
    {
      "name": "Object_3",
      "primitives": [
        {
          "attributes": {
            "NORMAL": 13,
            "POSITION": 12,
            "TEXCOORD_0": 14
          },
          "indices": 15,
          "material": 0,
          "mode": 4
        }
      ]
    },
    {
      "name": "Object_4",
      "primitives": [
        {
          "attributes": {
            "NORMAL": 17,
            "POSITION": 16,
            "TEXCOORD_0": 18
          },
          "indices": 19,
          "material": 0,
          "mode": 4
        }
      ]
    },
    {
      "name": "Object_5",
      "primitives": [
        {
          "attributes": {
            "NORMAL": 21,
            "POSITION": 20,
            "TEXCOORD_0": 22
          },
          "indices": 23,
          "material": 0,
          "mode": 4
        }
      ]
    },
    {
      "name": "Object_6",
      "primitives": [
        {
          "attributes": {
            "NORMAL": 25,
            "POSITION": 24,
            "TEXCOORD_0": 26
          },
          "indices": 27,
          "material": 0,
          "mode": 4
        }
      ]
    },
    {
      "name": "Object_7",
      "primitives": [
        {
          "attributes": {
            "NORMAL": 29,
            "POSITION": 28,
            "TEXCOORD_0": 30
          },
          "indices": 31,
          "material": 0,
          "mode": 4
        }
      ]
    },
    {
      "name": "Object_8",
      "primitives": [
        {
          "attributes": {
            "NORMAL": 33,
            "POSITION": 32,
            "TEXCOORD_0": 34
          },
          "indices": 35,
          "material": 0,
          "mode": 4
        }
      ]
    },
    {
      "name": "Object_9",
      "primitives": [
        {
          "attributes": {
            "NORMAL": 37,
            "POSITION": 36,
            "TEXCOORD_0": 38
          },
          "indices": 39,
          "material": 0,
          "mode": 4
        }
      ]
    }
  ],
  "nodes": [
    {
      "children": [
        1
      ],
      "matrix": [
        0.0009642647346481681,
        0.0,
        0.0,
        0.0,
        0.0,
        2.1410978204809263e-19,
        -0.0009642647346481681,
        0.0,
        0.0,
        0.0009642647346481681,
        2.1410978204809263e-19,
        0.0,
        0.0,
        0.0,
        0.0,
        1.0
      ],
      "name": "Sketchfab_model"
    },
    {
      "children": [
        2,
        3,
        4,
        5,
        6,
        7,
        8,
        9,
        10,
        11
      ],
      "name": "NHMW-Zoo1-VS-63420-Cygnus-atratus-07062022-AH-VW_lowres.obj.cleaner.materialmerger.gles"
    },
    {
      "mesh": 0,
      "name": "Object_2"
    },
    {
      "mesh": 1,
      "name": "Object_3"
    },
    {
      "mesh": 2,
      "name": "Object_4"
    },
    {
      "mesh": 3,
      "name": "Object_5"
    },
    {
      "mesh": 4,
      "name": "Object_6"
    },
    {
      "mesh": 5,
      "name": "Object_7"
    },
    {
      "mesh": 6,
      "name": "Object_8"
    },
    {
      "mesh": 7,
      "name": "Object_9"
    },
    {
      "mesh": 8,
      "name": "Object_10"
    },
    {
      "mesh": 9,
      "name": "Object_11"
    }
  ],
  "samplers": [
    {
      "magFilter": 9729,
      "minFilter": 9987,
      "wrapS": 10497,
      "wrapT": 10497
    }
  ],
  "scene": 0,
  "scenes": [
    {
      "name": "Sketchfab_Scene",
      "nodes": [
        0
      ]
    }
  ],
  "textures": [
    {
      "sampler": 0,
      "source": 0
    }
  ]
}
